<svg xmlns="http://www.w3.org/2000/svg" viewBox="0 0 512 512" width="512" height="512">
  <!-- Piriquito: periquito verde-amarelo falando -->
  <defs>
    <clipPath id="corpo"><ellipse cx="222" cy="340" rx="100" ry="120"/></clipPath>
  </defs>
  <!-- cauda (atrás do corpo) -->
  <path d="M175 420 L105 505 Q130 510 150 490 L180 455 Z" fill="#2F6FB3"/>
  <path d="M190 428 L140 510 Q165 512 178 492 L205 450 Z" fill="#3E8FD8"/>
  <!-- corpo -->
  <ellipse cx="222" cy="340" rx="100" ry="120" fill="#5FBF4A"/>
  <g clip-path="url(#corpo)">
    <ellipse cx="255" cy="365" rx="70" ry="95" fill="#8ED96B"/>
    <ellipse cx="160" cy="340" rx="58" ry="105" transform="rotate(12 160 340)" fill="#3E9E3A"/>
    <path d="M140 300 q26 -14 52 0 M132 342 q26 -14 52 0 M138 384 q22 -14 44 0" stroke="#2B5D28" stroke-width="7" fill="none" stroke-linecap="round"/>
  </g>
  <!-- poleiro e pés -->
  <path d="M120 472 H340" stroke="#8D6E63" stroke-width="16" stroke-linecap="round"/>
  <path d="M205 452 q-4 22 -14 30 M205 452 q6 22 16 30 M245 452 q-4 22 -14 30 M245 452 q6 22 16 30" stroke="#E8A24A" stroke-width="8" fill="none" stroke-linecap="round"/>
  <!-- cabeça -->
  <circle cx="268" cy="210" r="78" fill="#F6D33C"/>
  <path d="M212 168 q18 -11 36 0 M203 200 q18 -11 36 0 M208 232 q16 -11 32 0" stroke="#2B2B2B" stroke-width="6" fill="none" stroke-linecap="round" opacity="0.7"/>
  <!-- bochecha -->
  <circle cx="306" cy="256" r="12" fill="#5B6EE1"/>
  <!-- olho -->
  <circle cx="300" cy="192" r="17" fill="#FFFFFF"/>
  <circle cx="304" cy="193" r="10" fill="#1E1E1E"/>
  <circle cx="308" cy="188" r="4" fill="#FFFFFF"/>
  <!-- bico em gancho, aberto (falando) -->
  <path d="M334 228 L364 252 L354 260 L330 238 Z" fill="#5C1F14"/>
  <path d="M330 238 L354 260 C350 272 338 274 334 268 C328 258 328 248 330 238 Z" fill="#D9843A"/>
  <path d="M328 192 C352 182 382 196 380 220 C379 232 372 244 364 252 L334 228 C329 218 327 204 328 192 Z" fill="#F2A04D"/>
  <path d="M340 198 C356 192 370 200 374 212" stroke="#FFC978" stroke-width="6" fill="none" stroke-linecap="round" opacity="0.8"/>
  <ellipse cx="334" cy="196" rx="9" ry="6" fill="#7FB3E6"/>
  <!-- balão de fala -->
  <path d="M362 40 H478 a30 30 0 0 1 30 30 V128 a30 30 0 0 1 -30 30 H412 L376 200 L384 158 H362 a30 30 0 0 1 -30 -30 V70 a30 30 0 0 1 30 -30 Z" fill="#2E7D32"/>
  <circle cx="386" cy="99" r="11" fill="#FFFFFF"/>
  <circle cx="420" cy="99" r="11" fill="#FFFFFF"/>
  <circle cx="454" cy="99" r="11" fill="#FFFFFF"/>
</svg>
